 <svg
   width="46.659451"
   height="47.203426"
   viewBox="147 135 627.10302 676.89713"
   style="shape-rendering:geometricPrecision"
   version="1.1"
   id="svg93"
   xmlns="http://www.w3.org/2000/svg"
   xmlns:svg="http://www.w3.org/2000/svg">
  <g
     id="g100"
     transform="translate(-20.499999,-28.68)">
    <path
       d="m 481.37142,163.68 7.2926,0.92726 10.93891,5.56353 9.11576,7.41806 8.20418,8.3453 12.76206,17.61787 7.2926,12.05434 10.02734,19.47238 7.2926,18.54513 6.38103,20.39964 v 3.70903 l -14.58521,7.41805 -14.58521,9.27256 -10.02733,7.41805 -6.38103,4.63628 -2.73473,-8.3453 -5.46945,-23.18141 -8.20418,-22.25416 -9.11576,-17.61787 -6.38103,-9.27256 -4.55788,-0.92726 -1.82315,4.63628 -8.20418,12.98159 -7.29261,14.83611 -5.46945,14.8361 -4.55788,15.76336 -2.73473,17.61787 -4.55787,-1.85452 -12.76206,-9.27256 -20.05467,-12.05433 -8.20418,-3.70903 0.91158,-7.41805 6.38103,-21.3269 8.20418,-19.47238 9.11575,-17.61787 10.02734,-12.98159 8.20418,-12.98159 11.85048,-10.19982 11.85048,-7.41805 9.11576,-4.63628 z"
       fill="#f31517"
       id="path6"
       style="display:inline;stroke-width:0.919383" />
    <g
       id="g99">
      <path
         d="m 656.21892,257.37557 h 11.8505 l 16.4083,2.78177 13.6736,7.41805 10.0274,9.27256 6.381,11.12708 3.6463,13.90885 v 26.89043 l -4.5579,22.25415 -8.2041,23.18141 -6.3811,13.90885 -9.1157,17.61787 -11.8505,20.39964 -10.9389,16.69062 -11.8505,17.61787 -9.1158,12.98159 -9.1157,12.05433 -10.9389,12.98159 -11.8505,13.90885 -10.0273,11.12707 -12.7621,14.8361 -7.2926,6.4908 -29.1704,29.6722 -7.29264,6.4908 -10.93891,11.12708 -7.2926,6.49079 -10.93891,10.19982 -7.29261,6.4908 -10.02733,9.27256 -10.02733,8.34531 -11.85049,11.12707 -12.76206,10.19982 -16.40836,12.98159 -16.40836,12.05434 -15.49679,11.12707 -10.9389,7.41805 -16.40836,10.19982 -10.02734,6.4908 -14.58521,7.41805 -16.40836,7.41805 -13.67363,5.56354 -22.7894,6.49079 -16.40836,1.85452 h -10.93891 l -12.76206,-1.85452 -14.58521,-7.41805 -7.2926,-6.49079 -5.46945,-6.4908 -5.46946,-11.12707 -2.73473,-12.05434 v -21.32689 l 2.73473,-15.76336 6.38103,-23.18141 9.11576,-21.3269 11.85048,-22.25415 10.93891,-17.61787 6.38103,-10.19982 14.58521,-22.25416 9.11576,-12.98159 9.11575,-12.05433 12.76206,-15.76336 5.46946,-7.41805 h 1.82315 l 1.82315,-3.70902 10.93891,-12.05434 8.20418,-10.19982 7.2926,-7.41805 6.38103,-7.41805 10.02733,-10.19982 6.38103,-7.41805 25.52412,-25.96318 7.29261,-6.4908 9.11575,-9.27256 7.29261,-6.49079 11.85048,-10.19982 7.29261,-6.4908 9.11575,-8.34531 10.02734,-8.3453 11.85048,-10.19982 29.17042,-22.25416 10.02733,-6.49079 19.14309,-12.98159 20.05472,-12.05433 14.5852,-8.34531 24.6125,-12.05434 19.1431,-7.41805 17.3199,-4.63628 z m 16.4083,44.50831 -24.6125,8.3453 -18.2315,7.41805 -16.4084,7.41806 -20.9662,11.12707 -20.9663,12.05434 -20.05464,12.98158 -11.85048,9.27257 -10.02733,7.41805 -14.58522,12.05433 -12.76205,10.19982 -9.11576,8.34531 -10.02733,8.34531 -10.93891,10.19982 -10.02733,8.34531 -6.38103,6.49079 -7.29261,6.4908 -49.22508,50.07184 -6.38103,7.41805 -8.20418,9.27257 -10.02734,12.98158 -8.20418,9.27257 -8.20418,10.19982 -10.93891,13.90884 -10.02733,14.83611 -8.20418,12.05433 -12.76206,20.39964 -12.76206,25.03592 -7.2926,14.83611 -5.46946,13.90884 -6.38103,19.47239 -2.73472,11.12707 0.91157,4.63628 11.85049,-1.85451 21.87781,-7.41805 15.49679,-6.49079 14.58521,-7.41806 20.96624,-11.12707 16.40836,-10.19982 15.49679,-10.19982 14.58521,-10.19982 10.9389,-8.34531 12.76206,-10.19982 15.49679,-12.98159 10.02733,-9.27256 10.02733,-8.34531 11.85049,-12.05434 7.2926,-6.49079 9.11576,-8.34531 6.38103,-6.49079 7.2926,-6.4908 30.99358,-31.52671 5.46945,-6.4908 7.29264,-6.49079 13.6736,-14.83611 6.381,-7.41805 8.2042,-9.27256 7.2926,-9.27256 8.2042,-10.19982 6.381,-8.34531 13.6737,-18.54513 9.1157,-13.90885 9.1158,-14.8361 8.2042,-14.8361 8.2041,-17.61787 4.5579,-10.19982 5.4695,-12.98159 6.381,-24.10867 0.9116,-10.19982 z"
         fill="#cf0612"
         id="path1"
         style="display:inline;stroke-width:0.919383" />
      <path
         d="m 635.4277,516.03743 h 2.73473 l 9.11576,12.98159 11.85048,15.76336 12.76206,18.54512 9.11576,13.90885 10.02733,15.76336 8.20418,14.8361 10.02733,21.3269 4.55788,11.12707 4.55788,15.76336 2.73473,13.90885 0.91157,19.47238 -0.91157,11.12708 -4.55788,13.90885 -6.38103,10.19982 -7.29261,6.49079 -14.58521,7.41805 -15.49678,3.70903 H 658.2171 l -18.23152,-2.78177 -16.40836,-4.63628 -24.61254,-10.19982 -14.58521,-7.41806 -16.40836,-9.27256 -14.58521,-9.27256 -24.61255,-16.69062 -16.40836,-12.05433 -15.49679,-12.98159 -1.82315,-1.85451 v -2.78177 l 8.20418,-6.4908 10.02734,-8.3453 15.49678,-15.76336 2.73473,-0.92726 12.76206,10.19982 13.67363,10.19982 16.40837,10.19982 15.49678,9.27256 16.40836,9.27257 18.23152,8.34531 10.9389,5.56353 19.14309,7.41806 14.58521,4.63628 7.29261,0.92725 -0.91158,-9.27256 -5.46945,-21.3269 -8.20418,-20.39964 -10.93891,-22.25415 -13.67363,-23.18141 -12.76206,-18.54513 -10.93891,-14.8361 -9.11576,-12.98159 1.82315,-4.63628 8.20418,-8.34531 8.20419,-10.19982 9.11575,-10.19982 z"
         fill="#cf0511"
         id="path4"
         style="display:inline;stroke-width:0.919383" />
      <path
         d="m 446.73154,691.28889 h 1.82315 l 2.73473,21.32689 4.55788,17.61787 7.29261,19.47239 7.2926,14.8361 9.11576,14.8361 2.73472,0.92726 5.46946,-8.34531 8.20418,-15.76336 9.11576,-22.25415 4.55787,-17.61787 3.64631,-24.10867 3.6463,0.92726 15.49679,12.05433 18.23151,11.12708 8.20418,4.63628 0.91158,4.63628 -9.11576,30.59946 -6.38103,15.76336 -8.20418,17.61787 -9.11576,13.90885 -10.02733,13.90884 -11.85048,10.19982 -13.67364,9.27257 -6.38103,3.70902 -6.38103,-0.92725 -12.76206,-6.4908 -11.85048,-9.27256 -10.93891,-11.12708 -7.2926,-9.27256 -9.11576,-13.90885 -9.11576,-17.61787 -9.11575,-24.10866 -6.38103,-21.3269 v -5.56354 l 7.2926,-4.63628 10.93891,-6.4908 17.31994,-12.05433 7.2926,-5.56354 z"
         fill="#f31618"
         id="path5"
         style="display:inline;stroke-width:0.919383" />
      <path
         d="m 255.30065,418.67551 4.55788,0.92725 7.29261,12.05434 8.20418,13.90884 8.20418,12.05434 3.6463,4.63628 v 1.85451 l -20.96624,6.49079 -25.52412,10.19983 -17.31993,9.27256 -10.02734,7.41805 -0.91157,2.78177 4.55788,4.63628 8.20418,6.4908 19.14309,11.12707 17.31993,8.34531 21.87782,8.34531 -0.91158,3.70902 -9.11575,12.98159 -11.85049,20.39964 -5.46945,8.34531 -14.58521,-5.56354 -22.78939,-11.12707 -19.14309,-11.12708 -17.31994,-12.98159 -5.46945,-4.63628 -7.29261,-6.4908 -3.6463,-2.78177 v -1.85451 l -3.6463,-1.85451 v -1.85451 l -3.64631,-1.85452 v -1.85451 l -3.6463,-1.85451 -6.38103,-7.41805 -3.6463,-3.70903 0.91158,-5.56354 18.23151,-25.96318 11.85048,-12.05433 15.49679,-12.05433 12.76206,-9.27257 10.93891,-6.49079 20.96624,-10.19982 z"
         fill="#f31618"
         id="path7"
         style="display:inline;stroke-width:0.919383" />
      <path
         d="m 703.79588,419.60276 h 5.46945 l 20.05467,7.41805 14.58521,7.41806 11.85048,6.49079 12.76206,9.27256 14.58521,12.05434 5.46946,4.63628 v 1.85451 l 3.6463,1.85451 8.20418,10.19983 7.2926,11.12707 6.38103,11.12708 v 5.56354 l -6.38103,7.41805 -19.14308,19.47238 -16.40837,12.05434 -10.9389,8.3453 -17.31994,10.19982 -15.49679,8.34531 -20.96624,9.27256 -3.6463,-1.85451 -13.67364,-21.3269 -10.9389,-15.76335 -2.73473,-3.70903 0.91158,-2.78177 27.34727,-11.12708 14.58521,-7.41805 12.76205,-7.41805 10.02734,-6.49079 7.2926,-4.63628 -0.91157,-4.63629 -11.85049,-7.41805 -12.76206,-7.41805 -19.14308,-8.34531 -27.34727,-9.27256 -0.91158,-2.78177 13.67363,-20.39964 10.93891,-17.61787 z"
         fill="#cf0410"
         id="path8"
         style="display:inline;stroke-width:0.919383" />
      <path
         d="m 635.4277,516.03743 h 2.73473 l 9.11576,12.98159 11.85048,15.76336 12.76206,18.54512 9.11576,13.90885 10.02733,15.76336 8.20418,14.8361 10.02733,21.3269 4.55788,11.12707 4.55788,15.76336 2.73473,13.90885 0.91157,19.47238 -0.91157,11.12708 -1.82315,6.49079 -2.73473,0.92726 -1.82315,-5.56354 0.91157,-1.85451 -8.20418,-2.78177 -4.55788,-1.85451 -17.31993,-0.92726 -7.29261,1.85451 -4.55788,-17.61787 -4.55788,-14.8361 -7.2926,-18.54513 -10.93891,-22.25415 -13.67363,-23.18141 -12.76206,-18.54513 -10.93891,-14.8361 -9.11576,-12.98159 1.82315,-4.63628 8.20418,-8.34531 8.20419,-10.19982 9.11575,-10.19982 z"
         fill="#9f0511"
         id="path10"
         style="display:inline;stroke-width:0.919383" />
      <path
         d="m 749.37466,501.20133 h 5.46946 l 4.55787,5.56353 5.46946,3.70903 8.20418,10.19982 7.2926,12.05433 1.82316,7.41805 -10.93891,8.34531 -11.85049,8.34531 -13.67363,8.34531 -17.31994,9.27256 -20.96624,9.27256 -3.6463,-1.85451 -13.67364,-21.3269 -10.9389,-15.76335 -2.73473,-3.70903 0.91158,-2.78177 27.34727,-11.12708 14.58521,-7.41805 12.76205,-7.41805 10.02734,-6.49079 z"
         fill="#9f0511"
         id="path15"
         style="display:inline;stroke-width:0.919383" />
      <path
         style="display:inline;fill:#9f0511;fill-opacity:1;stroke-width:0.132132;paint-order:stroke fill markers"
         d="M 7.0984049,30.35215 C 5.1540408,29.353853 3.9637451,28.496641 3.9644497,28.095178 c 2.717e-4,-0.154782 0.1228053,-0.482046 0.2722969,-0.727253 0.316813,-0.519661 1.5307827,-1.734344 1.7333247,-1.734344 0.07626,0 0.4141882,0.200175 0.7509509,0.444833 0.8097301,0.58827 2.3942939,1.430725 3.4200978,1.818342 0.454204,0.171628 0.825824,0.3662 0.825824,0.432383 0,0.06618 -0.136404,0.304323 -0.30312,0.5292 -0.166716,0.224878 -0.555857,0.839948 -0.864758,1.366824 -0.3956879,0.674904 -0.6385435,0.957956 -0.821918,0.957956 -0.1431545,0 -0.9885888,-0.373936 -1.8787431,-0.830969 z"
         id="path93"
         transform="matrix(14.34,0,0,14.34,124.5,135)" />
      <path
         style="display:inline;fill:#9f0410;fill-opacity:1;stroke-width:0.132132;paint-order:stroke fill markers"
         d="m 21.207163,10.960033 c -0.654052,-0.433543 -1.29324,-0.821461 -1.420417,-0.86204 -0.127177,-0.04058 -0.231231,-0.1944053 -0.231231,-0.3418363 0,-0.9122812 1.364873,-4.0418763 2.158921,-4.950313 0.782142,-0.8948159 1.429281,-0.8414929 2.36562,0.1949228 0.574472,0.6358716 0.827147,1.0823441 0.675277,1.1932017 -0.604925,0.4415646 -2.160785,4.2740998 -2.160785,5.3226398 0,0.13372 -0.04459,0.240553 -0.0991,0.237407 -0.0545,-0.0031 -0.634233,-0.360438 -1.288286,-0.793982 z"
         id="path94"
         transform="matrix(14.34,0,0,14.34,124.5,135)" />
      <path
         style="display:inline;fill:#9f0511;fill-opacity:1;stroke-width:0.132132;paint-order:stroke fill markers"
         d="m 26.888833,46.711128 c -0.544149,-0.220697 -0.963794,-0.513204 -1.338032,-0.932656 l -0.545241,-0.611114 0.646826,-1.270451 c 0.751615,-1.476269 1.246179,-2.950479 1.376626,-4.103485 0.05068,-0.447988 0.145682,-0.814523 0.211105,-0.814523 0.06542,0 0.403108,0.222972 0.75041,0.495494 0.347302,0.272522 0.997838,0.703602 1.445634,0.957956 0.447797,0.254354 0.814697,0.551651 0.815333,0.660659 0.0021,0.35848 -0.619344,2.321016 -1.050352,3.317077 -0.328559,0.759301 -1.406046,2.642905 -1.502004,2.625721 -0.0096,-0.0017 -0.374269,-0.14783 -0.810305,-0.324678 z"
         id="path95"
         transform="matrix(14.34,0,0,14.34,124.5,135)" />
      <path
         style="display:inline;fill:#9f0511;fill-opacity:1;stroke-width:0.132132;paint-order:stroke fill markers"
         d="m 20.326788,31.269369 c -1.306534,-1.142251 -2.249947,-2.181056 -2.1967,-2.418818 0.02092,-0.09343 0.513717,-0.730214 1.095098,-1.41508 l 1.057054,-1.24521 0.726726,0.808004 c 0.399699,0.444402 1.232129,1.297499 1.849846,1.895771 l 1.123121,1.087768 -1.109295,1.030086 c -0.610112,0.566547 -1.18341,1.074036 -1.273995,1.127753 -0.103444,0.06134 -0.576485,-0.262339 -1.271855,-0.870274 z"
         id="path96"
         transform="matrix(14.34,0,0,14.34,124.5,135)" />
      <path
         style="fill:#9f0511;fill-opacity:1;stroke-width:0.132132;paint-order:stroke fill markers"
         d="m 28.340553,23.830086 c -0.435083,-0.555887 -1.162681,-1.425449 -1.616884,-1.93236 -0.454204,-0.50691 -0.825248,-0.988578 -0.824543,-1.070373 0.0011,-0.132901 1.562436,-1.628256 2.110522,-2.021391 0.183351,-0.131515 0.479422,0.100053 1.956927,1.530578 l 1.740891,1.685536 -0.823734,0.919656 c -0.453054,0.50581 -1.01516,1.14002 -1.249126,1.409356 -0.233965,0.269336 -0.442851,0.489702 -0.464192,0.489702 -0.02134,0 -0.394777,-0.454817 -0.829861,-1.010704 z"
         id="path97"
         transform="matrix(14.34,0,0,14.34,124.5,135)" />
      <path
         style="display:inline;fill:#cf0511;fill-opacity:1;stroke-width:0.241535;paint-order:stroke fill markers"
         d="M 12.744128,22.654438 C 11.011727,20.217855 9.4416241,17.355127 8.8040301,15.47056 7.8018869,12.508479 8.1033102,10.563235 9.7602753,9.2994059 10.573851,8.6788614 10.757209,8.6403064 12.382402,8.748046 c 1.22089,0.080937 2.304356,0.3490106 3.595925,0.8897127 1.917944,0.8029273 7.692083,4.4235373 7.692083,4.8232353 0,0.125205 -0.534496,0.675151 -1.187768,1.222102 l -1.187769,0.994456 -1.529498,-1.057424 c -3.131182,-2.164755 -8.080097,-4.440111 -8.576844,-3.943365 -0.255191,0.255191 0.825844,3.439125 1.808251,5.32578 0.476867,0.915796 1.38481,2.375305 2.01765,3.243353 l 1.150619,1.57827 -1.008419,1.104273 c -0.55463,0.60735 -1.081154,1.136194 -1.170053,1.175208 -0.0889,0.03901 -0.648002,-0.61313 -1.242451,-1.449209 z"
         id="path98"
         transform="matrix(14.34,0,0,14.34,124.5,135)" />
    </g>
  </g>
</svg>
