<svg width="46.776897" height="47.269493" viewBox="147 135 628.6815 677.84453" style="shape-rendering:geometricPrecision" xmlns="http://www.w3.org/2000/svg"><g id="g147" style="shape-rendering:geometricPrecision" transform="translate(-20.008635,-28.210611)"><g id="g172"><path d="m 656.21892,257.37557 h 11.8505 l 16.4083,2.78177 13.6736,7.41805 10.0274,9.27256 6.381,11.12708 3.6463,13.90885 v 26.89043 l -4.5579,22.25415 -8.2041,23.18141 -6.3811,13.90885 -9.1157,17.61787 -11.8505,20.39964 -10.9389,16.69062 -11.8505,17.61787 -9.1158,12.98159 -9.1157,12.05433 -10.9389,12.98159 -11.8505,13.90885 -10.0273,11.12707 -12.7621,14.8361 -7.2926,6.4908 -29.1704,29.6722 -7.29264,6.4908 -10.93891,11.12708 -7.2926,6.49079 -10.93891,10.19982 -7.29261,6.4908 -10.02733,9.27256 -10.02733,8.34531 -11.85049,11.12707 -12.76206,10.19982 -16.40836,12.98159 -16.40836,12.05434 -15.49679,11.12707 -10.9389,7.41805 -16.40836,10.19982 -10.02734,6.4908 -14.58521,7.41805 -16.40836,7.41805 -13.67363,5.56354 -22.7894,6.49079 -16.40836,1.85452 h -10.93891 l -12.76206,-1.85452 -14.58521,-7.41805 -7.2926,-6.49079 -5.46945,-6.4908 -5.46946,-11.12707 -2.73473,-12.05434 v -21.32689 l 2.73473,-15.76336 6.38103,-23.18141 9.11576,-21.3269 11.85048,-22.25415 10.93891,-17.61787 6.38103,-10.19982 14.58521,-22.25416 9.11576,-12.98159 9.11575,-12.05433 12.76206,-15.76336 5.46946,-7.41805 0.77362,-1.5743 2.87268,-2.13472 10.93891,-12.05434 8.20418,-10.19982 7.2926,-7.41805 6.38103,-7.41805 10.02733,-10.19982 6.38103,-7.41805 25.52412,-25.96318 7.29261,-6.4908 9.11575,-9.27256 7.29261,-6.49079 11.85048,-10.19982 7.29261,-6.4908 9.11575,-8.34531 10.02734,-8.3453 11.85048,-10.19982 29.17042,-22.25416 10.02733,-6.49079 19.14309,-12.98159 20.05472,-12.05433 14.5852,-8.34531 24.6125,-12.05434 19.1431,-7.41805 17.3199,-4.63628 z m 16.4083,44.50831 -24.6125,8.3453 -18.2315,7.41805 -16.4084,7.41806 -20.9662,11.12707 -20.9663,12.05434 -20.05464,12.98158 -11.85048,9.27257 -10.02733,7.41805 -14.58522,12.05433 -12.76205,10.19982 -9.11576,8.34531 -10.02733,8.34531 -10.93891,10.19982 -10.02733,8.34531 -6.38103,6.49079 -7.29261,6.4908 -49.22508,50.07184 -6.38103,7.41805 -8.20418,9.27257 -10.02734,12.98158 -8.20418,9.27257 -8.20418,10.19982 -10.93891,13.90884 -10.02733,14.83611 -8.20418,12.05433 -12.76206,20.39964 -12.76206,25.03592 -7.2926,14.83611 -5.46946,13.90884 -6.38103,19.47239 -2.73472,11.12707 0.91157,4.63628 11.85049,-1.85451 21.87781,-7.41805 15.49679,-6.49079 14.58521,-7.41806 20.96624,-11.12707 16.40836,-10.19982 15.49679,-10.19982 14.58521,-10.19982 10.9389,-8.34531 12.76206,-10.19982 15.49679,-12.98159 10.02733,-9.27256 10.02733,-8.34531 11.85049,-12.05434 7.2926,-6.49079 9.11576,-8.34531 6.38103,-6.49079 7.2926,-6.4908 30.99358,-31.52671 5.46945,-6.4908 7.29264,-6.49079 13.6736,-14.83611 6.381,-7.41805 8.2042,-9.27256 7.2926,-9.27256 8.2042,-10.19982 6.381,-8.34531 13.6737,-18.54513 9.1157,-13.90885 9.1158,-14.8361 8.2042,-14.8361 8.2041,-17.61787 4.5579,-10.19982 5.4695,-12.98159 6.381,-24.10867 0.9116,-10.19982 z" fill="#cf0612" id="path105" style="display:inline;mix-blend-mode:multiply;stroke:#000000;stroke-width:0.919383;stroke-opacity:1"/><path d="m 635.4277,516.03743 h 2.73473 l 9.11576,12.98159 11.85048,15.76336 12.76206,18.54512 9.11576,13.90885 10.02733,15.76336 8.20418,14.8361 10.02733,21.3269 4.55788,11.12707 4.55788,15.76336 2.73473,13.90885 0.91157,19.47238 -0.91157,11.12708 -4.55788,13.90885 -6.38103,10.19982 -7.29261,6.49079 -14.58521,7.41805 -15.49678,3.70903 H 658.2171 l -18.23152,-2.78177 -16.40836,-4.63628 -24.61254,-10.19982 -14.58521,-7.41806 -16.40836,-9.27256 -14.58521,-9.27256 -24.61255,-16.69062 -16.40836,-12.05433 -15.49679,-12.98159 -1.82315,-1.85451 v -2.78177 l 8.20418,-6.4908 10.02734,-8.3453 15.49678,-15.76336 2.73473,-0.92726 12.76206,10.19982 13.67363,10.19982 16.40837,10.19982 15.49678,9.27256 16.40836,9.27257 18.23152,8.34531 10.9389,5.56353 19.14309,7.41806 14.58521,4.63628 7.29261,0.92725 -0.91158,-9.27256 -5.46945,-21.3269 -8.20418,-20.39964 -10.93891,-22.25415 -13.67363,-23.18141 -12.76206,-18.54513 -10.93891,-14.8361 -9.11576,-12.98159 1.82315,-4.63628 8.20418,-8.34531 8.20419,-10.19982 9.11575,-10.19982 z" fill="#cf0511" id="path106" style="display:inline;mix-blend-mode:multiply;stroke:#000000;stroke-width:0.919383;stroke-opacity:1"/><path d="m 446.73154,691.28889 h 1.82315 l 2.73473,21.32689 4.55788,17.61787 7.29261,19.47239 7.2926,14.8361 9.11576,14.8361 2.73472,0.92726 5.46946,-8.34531 8.20418,-15.76336 9.11576,-22.25415 4.55787,-17.61787 3.64631,-24.10867 3.6463,0.92726 15.49679,12.05433 18.23151,11.12708 8.20418,4.63628 0.91158,4.63628 -9.11576,30.59946 -6.38103,15.76336 -8.20418,17.61787 -9.11576,13.90885 -10.02733,13.90884 -11.85048,10.19982 -13.67364,9.27257 -6.38103,3.70902 -6.38103,-0.92725 -12.76206,-6.4908 -11.85048,-9.27256 -10.93891,-11.12708 -7.2926,-9.27256 -9.11576,-13.90885 -9.11576,-17.61787 -9.11575,-24.10866 -6.38103,-21.3269 v -5.56354 l 7.2926,-4.63628 10.93891,-6.4908 17.31994,-12.05433 7.2926,-5.56354 z" fill="#f31618" id="path107" style="display:inline;mix-blend-mode:multiply;stroke:#000000;stroke-width:0.919383;stroke-opacity:1"/><path d="m 255.30065,418.67551 4.55788,0.92725 7.29261,12.05434 8.20418,13.90884 8.20418,12.05434 3.6463,4.63628 v 1.85451 l -20.96624,6.49079 -25.52412,10.19983 -17.31993,9.27256 -10.02734,7.41805 -0.91157,2.78177 4.55788,4.63628 8.20418,6.4908 19.14309,11.12707 17.31993,8.34531 21.87782,8.34531 -0.91158,3.70902 -9.11575,12.98159 -11.85049,20.39964 -5.46945,8.34531 -14.58521,-5.56354 -22.78939,-11.12707 -19.14309,-11.12708 -17.31994,-12.98159 -5.46945,-4.63628 -7.29261,-6.4908 -3.6463,-2.78177 v -1.85451 l -3.6463,-1.85451 v -1.85451 l -3.64631,-1.85452 v -1.85451 l -3.6463,-1.85451 -6.38103,-7.41805 -3.6463,-3.70903 0.91158,-5.56354 18.23151,-25.96318 11.85048,-12.05433 15.49679,-12.05433 12.76206,-9.27257 10.93891,-6.49079 20.96624,-10.19982 z" fill="#f31618" id="path108" style="display:inline;mix-blend-mode:multiply;stroke:#000000;stroke-width:0.919383;stroke-opacity:1"/><path d="m 704.81257,418.75211 5.1859,0.85065 20.05467,7.41805 14.58521,7.41806 11.85048,6.49079 12.76206,9.27256 14.58521,12.05434 5.46946,4.63628 1.98486,1.57096 1.66144,2.13806 8.20418,10.19983 7.2926,11.12707 6.38103,11.12708 v 5.56354 l -6.38103,7.41805 -19.14308,19.47238 -16.40837,12.05434 -10.9389,8.3453 -17.31994,10.19982 -15.49679,8.34531 -20.96624,9.27256 -3.6463,-1.85451 -13.67364,-21.3269 -10.9389,-15.76335 -2.73473,-3.70903 0.91158,-2.78177 27.34727,-11.12708 14.58521,-7.41805 12.76205,-7.41805 10.02734,-6.49079 10.12811,-6.62114 -3.74708,-2.65143 -11.85049,-7.41805 -12.76206,-7.41805 -19.14308,-8.34531 -27.34727,-9.27256 -0.91158,-2.78177 13.67363,-20.39964 10.93891,-17.61787 z" fill="#cf0410" id="path109" style="display:inline;mix-blend-mode:multiply;stroke:#000000;stroke-width:0.919383;stroke-opacity:1"/><path d="m 749.37466,501.20133 3.4846,-1.98485 6.82628,6.13063 6.03656,6.54453 7.35353,8.78207 7.2926,12.05433 2.67382,7.41805 -11.78957,8.34531 -11.85049,8.34531 -13.67363,8.34531 -17.31994,9.27256 -20.96624,9.27256 -3.6463,-1.85451 -13.67364,-21.3269 -10.9389,-15.76335 -2.73473,-3.70903 0.91158,-2.78177 27.34727,-11.12708 14.58521,-7.41805 12.76205,-7.41805 10.02734,-6.49079 z" fill="#9f0511" id="path111" style="display:inline;mix-blend-mode:multiply;fill:#800000;stroke:#000000;stroke-width:0.919383;stroke-opacity:1"/><path style="display:inline;mix-blend-mode:multiply;fill:#800000;fill-opacity:1;stroke:#000000;stroke-width:2.007;stroke-opacity:1;paint-order:stroke fill markers" d="m 228.13639,572.41607 c -29.02702,-15.42811 -46.7967,-28.67584 -46.78618,-34.88022 0.004,-2.39207 1.83333,-7.44975 4.06507,-11.23929 4.72963,-8.03108 22.85274,-26.80331 25.87645,-26.80331 1.13847,0 6.18334,3.09359 11.2108,6.87464 12.0883,9.09138 35.74393,22.11105 51.05796,28.10145 6.78071,2.65242 12.32855,5.65941 12.32855,6.68224 0,1.02277 -2.03634,4.70314 -4.52522,8.17848 -2.48886,3.47537 -8.29827,12.98093 -12.90979,21.1235 -5.90715,10.43026 -9.53269,14.80467 -12.27025,14.80467 -2.13713,0 -14.75844,-5.77897 -28.04739,-12.84216 z" id="path112"/><path style="display:inline;mix-blend-mode:multiply;fill:#800000;fill-opacity:1;stroke:#000000;stroke-width:2.0484;stroke-opacity:1;paint-order:stroke fill markers" d="m 427.79134,297.59542 c -10.27919,-6.6298 -20.32476,-12.5619 -22.3235,-13.18244 -1.99872,-0.62056 -3.63405,-2.97288 -3.63405,-5.22742 0,-13.95074 24.43719,-70.76888 36.91657,-84.66083 12.29226,-13.68366 19.47616,-3.90832 34.19181,11.94069 9.02849,9.72385 12.99957,16.55138 10.61275,18.24663 -9.50709,6.75247 -33.95922,65.36016 -33.95922,81.3946 0,2.04486 -0.70079,3.67857 -1.55747,3.63046 -0.85653,-0.0474 -9.96771,-5.51187 -20.24691,-12.14169 z" id="path113"/><path style="display:inline;mix-blend-mode:multiply;fill:#800000;fill-opacity:1;stroke:#000000;stroke-width:1.9505;stroke-opacity:1;paint-order:stroke fill markers" d="m 510.16522,803.72371 c -8.12386,-3.22127 -14.38893,-7.49066 -19.97611,-13.61293 l -8.14015,-8.91974 9.65676,-18.54333 c 11.22122,-21.54743 16.70717,-46.2275 18.65468,-56.09869 1.2741,-6.45793 0.27733,-15.68391 1.25406,-15.68391 0.97669,0 9.81343,3.25447 14.99846,7.23217 5.18503,3.97769 14.8972,10.26968 21.58254,13.98219 6.68538,3.71252 12.163,8.05183 12.1725,9.64289 0.0313,5.23234 -10.80467,38.02385 -14.87261,53.39336 -4.27266,16.14298 -21.80011,33.59776 -23.23271,33.34694 -0.14332,-0.0248 -5.58763,-2.1577 -12.09742,-4.73895 z" id="path114"/><path style="display:inline;mix-blend-mode:multiply;fill:#d40000;fill-opacity:1;stroke:#000000;stroke-width:0.132132;stroke-opacity:1;paint-order:stroke fill markers" d="m 20.326788,31.269369 c -1.306534,-1.142251 -2.249947,-2.181056 -2.1967,-2.418818 0.02092,-0.09343 0.513717,-0.730214 1.095098,-1.41508 l 1.057054,-1.24521 0.726726,0.808004 c 0.399699,0.444402 1.232129,1.297499 1.849846,1.895771 l 1.123121,1.087768 -1.109295,1.030086 c -0.610112,0.566547 -1.18341,1.074036 -1.273995,1.127753 -0.103444,0.06134 -0.576485,-0.262339 -1.271855,-0.870274 z" id="path115" transform="matrix(14.34,0,0,14.34,124.5,135)"/><path style="mix-blend-mode:multiply;fill:#aa0000;fill-opacity:1;stroke:#000000;stroke-width:0.132132;stroke-opacity:1;paint-order:stroke fill markers" d="m 28.340553,23.830086 c -0.435083,-0.555887 -1.162681,-1.425449 -1.616884,-1.93236 -0.454204,-0.50691 -0.825248,-0.988578 -0.824543,-1.070373 0.0011,-0.132901 1.562436,-1.628256 2.110522,-2.021391 0.183351,-0.131515 0.479422,0.100053 1.956927,1.530578 l 1.740891,1.685536 -0.823734,0.919656 c -0.453054,0.50581 -1.01516,1.14002 -1.249126,1.409356 -0.233965,0.269336 -0.442851,0.489702 -0.464192,0.489702 -0.02134,0 -0.394777,-0.454817 -0.829861,-1.010704 z" id="path116" transform="matrix(14.34,0,0,14.34,124.5,135)"/><path d="m 482.70214,166.90073 7.2926,0.92726 10.93891,5.56353 9.11576,7.41806 8.20418,8.3453 12.76206,17.61787 7.2926,12.05434 10.02734,19.47238 7.2926,18.54513 6.38103,20.39964 v 3.70903 l -14.58521,7.41805 -14.58521,9.27256 -10.02733,7.41805 -6.38103,4.63628 -2.73473,-8.3453 -5.46945,-23.18141 -8.20418,-22.25416 -9.11576,-17.61787 -6.38103,-9.27256 -4.55788,-0.92726 -1.82315,4.63628 -8.20418,12.98159 -7.29261,14.83611 -5.46945,14.8361 -4.55788,15.76336 -2.73473,17.61787 -4.55787,-1.85452 -12.76206,-9.27256 -20.05467,-12.05433 -8.20418,-3.70903 0.91158,-7.41805 6.38103,-21.3269 8.20418,-19.47238 9.11575,-17.61787 10.02734,-12.98159 8.20418,-12.98159 11.85048,-10.19982 11.85048,-7.41805 9.11576,-4.63628 z" fill="#f31517" id="path104" style="display:inline;mix-blend-mode:multiply;stroke:#000000;stroke-width:0.919383;stroke-opacity:1;shape-rendering:geometricPrecision" transform="translate(-1.3307239,-3.2207254)"/><path d="m 635.4277,516.03743 h 2.73473 l 9.11576,12.98159 11.85048,15.76336 12.76206,18.54512 9.11576,13.90885 10.02733,15.76336 8.20418,14.8361 10.02733,21.3269 4.55788,11.12707 4.55788,15.76336 2.73473,13.90885 0.91157,19.47238 -0.91157,11.12708 -4.55788,13.90885 -6.38103,10.19982 -7.29261,6.49079 -14.58521,7.41805 -15.49678,3.70903 H 658.2171 l -18.23152,-2.78177 -16.40836,-4.63628 -24.61254,-10.19982 -14.58521,-7.41806 -16.40836,-9.27256 -14.58521,-9.27256 -24.61255,-16.69062 -16.40836,-12.05433 -15.49679,-12.98159 -1.82315,-1.85451 v -2.78177 l 8.20418,-6.4908 10.02734,-8.3453 15.49678,-15.76336 2.73473,-0.92726 12.76206,10.19982 13.67363,10.19982 16.40837,10.19982 15.49678,9.27256 16.40836,9.27257 18.23152,8.34531 10.9389,5.56353 19.14309,7.41806 14.58521,4.63628 7.29261,0.92725 -0.91158,-9.27256 -5.46945,-21.3269 -8.20418,-20.39964 -10.93891,-22.25415 -13.67363,-23.18141 -12.76206,-18.54513 -10.93891,-14.8361 -9.11576,-12.98159 1.82315,-4.63628 8.20418,-8.34531 8.20419,-10.19982 9.11575,-10.19982 z" fill="#cf0511" id="path171" style="display:inline;mix-blend-mode:multiply;stroke:#000000;stroke-width:0.919383;stroke-opacity:1" transform="rotate(176.42564,482.93005,496.10204)"/></g></g></svg>