<svg xmlns="http://www.w3.org/2000/svg" width="50" height="50" viewBox="147 135 672 717" style="shape-rendering:geometricPrecision;"><path transform="translate(709 235)" d="m0 0h13l18 3 15 8 11 10 7 12 4 15v29l-5 24-9 25-7 15-10 19-13 22-12 18-13 19-10 14-10 13-12 14-13 15-11 12-14 16-8 7-32 32-8 7-12 12-8 7-12 11-8 7-11 10-11 9-13 12-14 11-18 14-18 13-17 12-12 8-18 11-11 7-16 8-18 8-15 6-25 7-18 2h-12l-14-2-16-8-8-7-6-7-6-12-3-13v-23l3-17 7-25 10-23 13-24 12-19 7-11 16-24 10-14 10-13 14-17 6-8h2l2-4 12-13 9-11 8-8 7-8 11-11 7-8 28-28 8-7 10-10 8-7 13-11 8-7 10-9 11-9 13-11 32-24 11-7 21-14 22-13 16-9 27-13 21-8 19-5zm18 48-27 9-20 8-18 8-23 12-23 13-22 14-13 10-11 8-16 13-14 11-10 9-11 9-12 11-11 9-7 7-8 7-54 54-7 8-9 10-11 14-9 10-9 11-12 15-11 16-9 13-14 22-14 27-8 16-6 15-7 21-3 12 1 5 13-2 24-8 17-7 16-8 23-12 18-11 17-11 16-11 12-9 14-11 17-14 11-10 11-9 13-13 8-7 10-9 7-7 8-7 34-34 6-7 8-7 15-16 7-8 9-10 8-10 9-11 7-9 15-20 10-15 10-16 9-16 9-19 5-11 6-14 7-26 1-11z" fill="#CF0612"/><path transform="translate(728 236)" d="m0 0 12 2 15 8 11 10 7 12 4 15v29l-5 24-9 25-7 15-10 19-13 22-12 18-13 19-10 14-10 13-12 14-13 15-11 12-14 16-8 7-32 32-8 7-12 12-8 7-12 11-8 7-11 10-11 9-4 1-10 8-5 2-2 1-2 5-4 2-1-3 4-3h2v-9l6-2 1-7 2-3-1-4-2-3v-3l-10 1-7-5-1-5-5-2 1-2h2l3-6 2-8 11-9 13-13 8-7 10-9 7-7 8-7 33-33 3-4h2l2-4 8-7 14-15 7-8 9-10 8-10 9-11 7-9 15-20 10-15 10-16 9-16 9-19 5-11 6-14 7-26 2-18 1-8v-20l-1-10z" fill="#CF0612"/><path transform="translate(297 235)" d="m0 0h21l17 3 22 6 21 8 25 12 25 14 22 14 13 9 30 20 7 6-6 7-10 9-5 4h-2v2l-8 7-8 9-5-1-11-9-20-13-13-8-21-12-29-15-23-11-28-9-9-2h-4l4 16 9 27 5 13 7 15 9 17 12 20 11 16 11 15 9 11 4 6-2 4-7 6-1 2h-2l-2 4-10 11-11 15-4-2-8-10-13-18-16-23-13-21-10-17-13-25-9-24-6-21-2-13v-26l3-10 6-12 6-8 8-7 12-7z" fill="#9F0410"/><path transform="translate(683 515)" d="m0 0h3l10 14 13 17 14 20 10 15 11 17 9 16 11 23 5 12 5 17 3 15 1 21-1 12-5 15-7 11-8 7-16 8-17 4h-16l-20-3-18-5-27-11-16-8-18-10-16-10-27-18-18-13-17-14-2-2v-3l9-7 11-9 17-17 3-1 14 11 15 11 18 11 17 10 18 10 20 9 12 6 21 8 16 5 8 1-1-10-6-23-9-22-12-24-15-25-14-20-12-16-10-14 2-5 9-9 9-11 10-11z" fill="#CF0511"/><path transform="translate(476 704)" d="m0 0h2l3 23 5 19 8 21 8 16 10 16 3 1 6-9 9-17 10-24 5-19 4-26 4 1 17 13 20 12 9 5 1 5-10 33-7 17-9 19-10 15-11 15-13 11-15 10-7 4-7-1-14-7-13-10-12-12-8-10-10-15-10-19-10-26-7-23v-6l8-5 12-7 19-13 8-6z" fill="#F31618"/><path transform="translate(514 135)" d="m0 0 8 1 12 6 10 8 9 9 14 19 8 13 11 21 8 20 7 22v4l-16 8-16 10-11 8-7 5-3-9-6-25-9-24-10-19-7-10-5-1-2 5-9 14-8 16-6 16-5 17-3 19-5-2-14-10-22-13-9-4 1-8 7-23 9-21 10-19 11-14 9-14 13-11 13-8 10-5z" fill="#F31517"/><path transform="translate(266 410)" d="m0 0 5 1 8 13 9 15 9 13 4 5v2l-23 7-28 11-19 10-11 8-1 3 5 5 9 7 21 12 19 9 24 9-1 4-10 14-13 22-6 9-16-6-25-12-21-12-19-14-6-5-8-7-4-3v-2l-4-2v-2l-4-2v-2l-4-2-7-8-4-4 1-6 20-28 13-13 17-13 14-10 12-7 23-11z" fill="#F31618"/><path transform="translate(758 411)" d="m0 0h6l22 8 16 8 13 7 14 10 16 13 6 5v2l4 2 9 11 8 12 7 12v6l-7 8-21 21-18 13-12 9-19 11-17 9-23 10-4-2-15-23-12-17-3-4 1-3 30-12 16-8 14-8 11-7 8-5-1-5-13-8-14-8-21-9-30-10-1-3 15-22 12-19z" fill="#CF0410"/><path transform="translate(495 597)" d="m0 0 3 1-2 4-1 4-3 3-2 1 5 3 2 6 5 3h10l4 7-1 5-1 1-1 7-6 2v7l-5 5h-2l1 2 3-1 4-7 7-3 10-8h2l-2 4-10 9-14 11-18 14-18 13-17 12-12 8-18 11-11 7-16 8-18 8-15 6-25 7-18 2h-12l-6-10-1-13v-20l2-6 10-2 16-5 20-7 15-7 33-17 18-11 17-11 16-11 12-9 14-11 17-14z" fill="#9F0510"/><path transform="translate(683 515)" d="m0 0h3l10 14 13 17 14 20 10 15 11 17 9 16 11 23 5 12 5 17 3 15 1 21-1 12-2 7-3 1-2-6 1-2-9-3-5-2-19-1-8 2-5-19-5-16-8-20-12-24-15-25-14-20-12-16-10-14 2-5 9-9 9-11 10-11z" fill="#9F0511"/><path transform="translate(326 237)" d="m0 0 9 1 22 6 21 8 25 12 25 14 22 14 13 9 30 20 7 6-6 7-10 9-5 4h-2v2l-8 7-8 9-5-1-11-9-20-13-13-8-21-12-29-15-23-11-3-2-4-4-5-2v-34l-1-6-4-2-3-4 1-4z" fill="#CE0511"/><path transform="translate(709 235)" d="m0 0h13l7 2 1 2 1 10v20l-2 13-2 2-27 9-20 8-18 8-23 12-18 10v-3l5-5-9-2-2-2v-7l2-5 2-3h2l-1-7-2-1 4-2 7-3 1-9 4-5 4-2 2-5 4-3 1-4-7-1-1-4 20-9 18-7 19-5z" fill="#9F0510"/><path transform="translate(549 705)" d="m0 0 4 1 17 13 20 12 9 5 1 5-10 33-7 17-9 19-10 15-5 7-11-3-12-5-11-8-8-11-4-3h2l2-4 12-23 7-15 6-17 4-17z" fill="#670613"/><path transform="translate(484 167)" d="m0 0 9 4 10 10 9 12 2 4-1 4h-2l-2 5-9 14-8 16-6 16-5 17-3 19-5-2-14-10-22-13-9-4 1-8 7-23 9-21 10-19 11-14 5-5z" fill="#670613"/><path transform="translate(808 499)" d="m0 0h6l5 6 6 4 9 11 8 13 2 8-12 9-13 9-15 9-19 10-23 10-4-2-15-23-12-17-3-4 1-3 30-12 16-8 14-8 11-7z" fill="#9F0511"/><path transform="translate(214 499)" d="m0 0 6 1 13 10 21 12 19 9 24 9-1 4-10 14-13 22-6 9-16-6-25-12-21-12-19-14-3-3v-6l7-13 14-15 9-7z" fill="#670612"/><path transform="translate(566 391)" d="m0 0 4 2 32 32 8 7 12 12-2 4-12 13-10 11-7 8-8 9-4-1-11-14-14-17-9-11-10-10-7-8 1-5 14-12 15-14z" fill="#690814"/><path transform="translate(442 508)" d="m0 0 5 5 12 14 12 12 8 7 16 15 5 6-2 5-14 11-10 10-8 7-5 4-4-2-11-10-9-7-7-7-8-7-9-9-7-9 1-6 11-13 11-12 7-8 4-5z" fill="#680714"/><path transform="translate(728 236)" d="m0 0 12 2 15 8 11 10 7 12 4 15v29l-5 24-6 17-2-2 2-8-3-3-4-1-1 4-5-2-2-6-7-1-1-1h-26l-2 9-7 14h-2l-1 6h-2v2h-2l2-5 9-19 8-19 7-26 2-18 1-8v-20l-1-10z" fill="#F31618"/><path transform="translate(373 682)" d="m0 0 5 1v4l-2 4v10l1 7-7 19-2 7-2 2v8h2v2l-17 6-18 5-18 2h-12l-6-10-1-13v-20l2-6 10-2 16-5 20-7 15-7z" fill="#670613"/><path transform="translate(683 515)" d="m0 0h3l10 14 13 17 13 19-1 3h-5v2l-9 5-2 6-6 5-6 2-9 1-1 3-3 3h-3l-11-16-10-13-7-10 2-5 9-9 9-11 10-11z" fill="#690815"/><path transform="translate(568 628)" d="m0 0 5 3 15 12 18 12 10 6-3 1-6-2h-4-2l-2 10h-2l-2 4-4 6-7 6v2l-5 1h-5l-3 1 1 5 3 3-5-1-19-14-14-11-8-7v-3l9-7 11-9 17-17z" fill="#9F0611"/><path transform="translate(345 398)" d="m0 0 4 2 9 13 8 11 9 11 4 6-2 4-7 6-1 2h-2l-2 4-10 11-11 15-4-2-8-10-13-18-2-6 4-9 3-10 5-6 2-7 1-12 3-3 4 1 1 3h2v2h5z" fill="#680714"/><path transform="translate(579 218)" d="m0 0h4l-1 5-2 4 5 1 1-6 3-1 4 8 8 25v4l-16 8-16 10-11 8-7 5-3-9-6-25v-7l-8-20v-4h3l5 5 2-3h7l16-3 5-3z" fill="#CF0511"/><path transform="translate(816 436)" d="m0 0 5 2 13 10 11 9 6 5v2l4 2 9 11 8 12 7 12v6l-7 8-21 21-5 4-3-1-4-10-7-10-8-10-6-4-4-5-5-1-2-5-4-4 6 2 4 5 3-4h3v-2l5 1v7l4-1 2-6 9-4 6-7v-5l-3-3-2-1-5-10 1-4h4v-2l-2-2-3 3-7-2-1-1h-1l-2-7-2-2v-4l-6-3z" fill="#F21719"/><path transform="translate(709 235)" d="m0 0h13l7 2 1 2 1 10v20l-2 13-2 2-27 9-13 5h-5l1-5v-21l1-15v-10l-2-5 1-2 11-3z" fill="#670612"/><path transform="translate(808 499)" d="m0 0h6l5 6 6 4 9 11 8 13 2 8-12 9-13 9-3 2h-6l-5-6-2-1v-2l-4-2-12-14-5-7-4-8h-3v-2l14-8 11-7z" fill="#670512"/><path transform="translate(266 410)" d="m0 0 5 1 8 13 9 15 9 13 4 5v2l-23 7-5 2h-6l-10 4-6-2-1-3-8-3-2-16v-12h2l2-4 1-1v-10l2-4z" fill="#CF030F"/><path transform="translate(479 314)" d="m0 0 5 1 12 8 4 5-10 10-11 9h-2v2l-8 7-8 9-5-1-11-9-20-13-14-9 1-2 5 2 8 5 6-2 3-2 2-4 13-7h2v-2h7l2 2 13 1 1-2 4-1z" fill="#A00713"/><path transform="translate(176 480)" d="m0 0 4 1 6 5 3 4v2h-3l-1 6 3 4-1 5-1 3-1 5-1 7-5 7-2 6 2 1-5-1-6-5v-2l-4-2v-2l-4-2v-2l-4-2-7-8-4-4 1-6 8-11 8-4 5-2v-1z" fill="#D00410"/><path transform="translate(568 628)" d="m0 0 5 3 14 11v2l-4 1-3 5-12 8-10 10-6 4h-3v2h-2l-1 3-4-1-11-9-2-2v-3l9-7 11-9 17-17z" fill="#6C0C18"/><path transform="translate(295 236)" d="m0 0h2l-1 20-1 8-2-1-5 10-3 1-2 6-5-3h-9l-5 1h-9-3l3-9 6-11 7-8 10-7 12-6z" fill="#D0040F"/><path transform="translate(476 704)" d="m0 0h2l2 17v8l-2-1v-2l-6 3-13 8-18 12-4 2h-3v8h-2l-5-17v-6l8-5 12-7 19-13 8-6z" fill="#A00612"/><path transform="translate(475 726)" d="m0 0h3l1 2 2-1 4 16v4h-2l-1-4-5 3-1 2-3 1-4 5-12 7-10 4h-2v2l-5 1 2 7h-2l-1-5-4-2-2-9 1-8 12-6 9-6 10-7z" fill="#D00511"/><path transform="translate(266 410)" d="m0 0 5 1 8 13 9 15 9 13 4 5v2l-13 4h-5l-1-4-13-14-7-11-4-11-4-7 1-2z" fill="#A10814"/><path transform="translate(758 411)" d="m0 0h6l9 3-1 6-9 17-7 10-3 8-4 4h-2v4l-9-1-10-4 2-5 13-19 12-19z" fill="#6C0B17"/><path transform="translate(773 415)" d="m0 0 5 1 5 2-3 15-3 16-4 12-5 6 2 4 5 2-4 1-20-8-7-2 3-5 4-1 2-5 4-9 6-9 8-15z" fill="#9F0611"/><path transform="translate(747 532)" d="m0 0h5l-4 4 1 9 6 5 4 9 6 8 4 10 2 3h-2v5l-9 3-4-5-13-20-12-17-3-4 1-3z" fill="#6D0C18"/><path transform="translate(485 321)" d="m0 0h8l7 6-6 7-10 9-5 4h-2v2l-8 7-8 9-5-1-5-4-1-4 9-10 4-5 5-5h2l2-4 8-7z" fill="#6E0D19"/><path transform="translate(595 244)" d="m0 0 3 1 3 9v4l-16 8-16 10-11 8-7 5-2-5v-7l6-5h2v-2l6-4 5-4 12-8 11-8z" fill="#A30E19"/><path transform="translate(266 410)" d="m0 0 5 1 8 13 9 15 9 13 2 2v4h-9l-5-3-4-7-3-7-4-5-1-6h-2l-5-13-4-4z" fill="#700E1A"/><path transform="translate(730 717)" d="m0 0 5 1v2l4 2 2 7 1 9v15l2 1-10 3h-4v-13l-1-26z" fill="#F31719"/><path transform="translate(286 711)" d="m0 0 5 1-2 5 4-2 2 1 1 24 3 11 3 5v2h-9l2-3-3-10-2-4-2-11-7-1-3-2v-9l2-3 1 1 1-3z" fill="#F21618"/><path transform="translate(476 704)" d="m0 0h2v7l-3 1h-4-2l-2 7-4 4-7 5-16 7-6 4-3 1-1 4h-2l-1-2v-6l8-5 12-7 19-13 8-6z" fill="#7B1A25"/><path transform="translate(597 367)" d="m0 0h3l1 24-1 6-4-2-7-7-8-5 1-4 10-8z" fill="#7A1C27"/><path transform="translate(295 236)" d="m0 0h2l-1 20-1 8-2-1-2 2-2-6h-2l-2-14h-4l-1 2-6 3-5 4-3-1 4-5 15-9z" fill="#F11C1F"/><path transform="translate(297 235)" d="m0 0h11l-4 2h-2l2 11-1 11 2 6v7l-2 5-4-2-3-3-1-7 1-25z" fill="#640310"/><path transform="translate(597 602)" d="m0 0h2v27l-5-2-10-9 1-4 5-4z" fill="#7F1E29"/><path transform="translate(429 602)" d="m0 0 4 2 9 8 3 2-1 4-12 9h-3z" fill="#761924"/><path transform="translate(516 804)" d="m0 0 4 4 5 6v2l4 2 9 6 19 7 1 2h-5-4l-3 6h-7l-5-5 1-5-3-5-5-4-6-5-2-4-3-4z" fill="#C8030F"/><path transform="translate(428 365)" d="m0 0 7 4 9 7-2 4-8 7-4 4h-2z" fill="#7F1A25"/><path transform="translate(501 350)" d="m0 0 2 1-4 5-2 1-1 3-3 3h-2l1 3-5 1-1 5-15 9v2h-6l6-7 17-14z" fill="#F54041"/><path transform="translate(569 269)" d="m0 0h5v4l-15 10-7 2 1-6 4-4 4-3 6-2 2 1z" fill="#79131F"/><path transform="translate(236 565)" d="m0 0 4 2v2l6 2 1 1v7l-3 1-16-8 3-3h2v-2z" fill="#A7121C"/><path transform="translate(816 436)" d="m0 0 5 2 13 10 5 5h-2v3l-4 1-5-2-1-1h-1l-2-7-2-2v-4l-6-3z" fill="#F12628"/><path transform="translate(391 566)" d="m0 0 4 1 7 7v2l-2 1h-14l1-6z" fill="#92343D"/><path transform="translate(262 640)" d="m0 0 2 2-1 5-4 15-1 7-4 8-2 6-1-4 7-28z" fill="#F54445"/><path transform="translate(495 597)" d="m0 0 3 1-2 4-1 4-3 3-7 3-5 3v-3l1-3 11-9z" fill="#AC1C26"/><path transform="translate(387 417)" d="m0 0h14l-1 4-5 4-1 2h-4l-4-6z" fill="#9B3139"/><path transform="translate(626 418)" d="m0 0h8l7 2-1 3-5 4-5-2-5-4z" fill="#A04951"/><path transform="translate(484 167)" d="m0 0 9 4 10 10v3l-9-8-8-4-3-1h-8l-5 1 1-3z" fill="#C5010D"/><path transform="translate(525 639)" d="m0 0h2l-2 4-10 9-11 9-2-2 6-9 7-3z" fill="#B5333C"/><path transform="translate(633 567)" d="m0 0 5 1 3 4v4h-8l-6-1 2-4z" fill="#99454E"/><path transform="translate(716 333)" d="m0 0 1 3-6 15-3 5h-2l-1 6h-2v2h-2l2-5 9-19 3-6z" fill="#F4484A"/><path transform="translate(436 580)" d="m0 0 6 3 7 2 1 3-4 4-9-7z" fill="#A71822"/><path transform="translate(153 490)" d="m0 0 1 4-3 6-2 3 2 5 1 4-7-6 1-6z" fill="#F54F51"/><path transform="translate(284 240)" d="m0 0 1 4-4 1-1 2-6 3-5 4-3-1 4-5z" fill="#F24043"/><path transform="translate(819 506)" d="m0 0 5 2 11 13 7 12-1 3-10-16-11-12z" fill="#B5010D"/><path transform="translate(670 750)" d="m0 0 9 1 25 5v2l-16-2-18-5z" fill="#F76A6C"/><path transform="translate(504 852)" d="m0 0 6 2 4-1 1 3-3 3-1 2-7-1v-4z" fill="#D0020E"/><path transform="translate(490 839)" d="m0 0 4 2v2l-2 1 1 2-1 2h2l-1 3-3-1v-2l-4-2-1-2 3-3h2z" fill="#D0020E"/><path transform="translate(622 326)" d="m0 0m-1 1m-1 1m-1 1 1 3-17 10v-3l11-7z" fill="#BB3D45"/><path transform="translate(484 611)" d="m0 0h5l-2 5-10 4-2-1 5-5z" fill="#CF020E"/><path transform="translate(763 738)" d="m0 0 1 3-7 6-8 4v-3l5-3 8-6z" fill="#BE3F47"/><path transform="translate(476 704)" d="m0 0h2v7l-3 1h-4l-2-1 5-6z" fill="#841722"/><path transform="translate(378 314)" d="m0 0 7 1 11 7-1 2-17-9z" fill="#C1454D"/><path transform="translate(773 721)" d="m0 0 1 3-6 12-4 1 5-8 3-7z" fill="#BF333B"/><path transform="translate(597 421)" d="m0 0 8 6v3l-5-1-4-4z" fill="#AD242D"/><path transform="translate(265 253)" d="m0 0 1 4-2 4h-2v2l-6 5 2-5 6-9z" fill="#F66465"/><path transform="translate(471 169)" d="m0 0h13l9 4 1 2-5-2-6-2h-8l-5 1z" fill="#A2010D"/><path transform="translate(520 850)" d="m0 0 3 1v2h3v2h2v3l-4-1-5-3z" fill="#D2030E"/><path transform="translate(580 260)" d="m0 0 6 1-1 5-5-1-2-1z" fill="#730A16"/><path transform="translate(286 749)" d="m0 0h2l2 5 1 3-9-3-1-2 4-1z" fill="#B63039"/><path transform="translate(529 395)" d="m0 0 3 2-10 9-4 2 2-4 8-7z" fill="#F6585A"/><path transform="translate(429 602)" d="m0 0 2 1v21l2 2-4 1z" fill="#EE595B"/><path transform="translate(594 502)" d="m0 0 3 1-12 12-2-1 7-8h2z" fill="#E63E44"/><path transform="translate(591 253)" d="m0 0h3v5h2v2l-5 1v-2l-2-1z" fill="#77111D"/><path transform="translate(516 804)" d="m0 0 4 4 5 6v2l3 1-3 1-4-4-5-7z" fill="#B7020D"/><path transform="translate(442 508)" d="m0 0 2 2-8 7-6 5 2-4 8-9z" fill="#B2585F"/><path transform="translate(147 502)" d="m0 0 3 3 2 4-1 3-6-6v-3z" fill="#F55A5B"/><path transform="translate(536 237)" d="m0 0 3 1 4 10-2 4-5-13z" fill="#F65A5B"/><path transform="translate(716 333)" d="m0 0 1 3-3 8-3 1 1-5 3-6z" fill="#F54C4D"/><path transform="translate(538 415)" d="m0 0 2 1-12 12 1-5z" fill="#C16368"/></svg>
