<svg width="46.777" height="47.269" viewBox="147 135 628.682 677.845" style="shape-rendering:geometricPrecision" xmlns="http://www.w3.org/2000/svg"><g style="shape-rendering:geometricPrecision"><path d="M656.219 257.376h11.85l16.409 2.781 13.673 7.418 10.028 9.273 6.38 11.127 3.647 13.909v26.89l-4.558 22.254-8.204 23.182-6.381 13.909-9.116 17.618-11.85 20.4-10.94 16.69-11.85 17.618-9.115 12.981-9.116 12.055-10.94 12.981-11.85 13.91-10.027 11.126-12.762 14.836-7.293 6.491-29.17 29.672-7.293 6.491-10.939 11.127-7.292 6.49-10.939 10.2-7.293 6.492-10.027 9.272-10.027 8.345-11.85 11.127-12.763 10.2-16.408 12.982-16.409 12.054-15.496 11.127-10.94 7.418-16.408 10.2-10.027 6.491-14.585 7.418-16.409 7.418-13.673 5.564-22.79 6.49-16.408 1.855H286.12l-12.762-1.855-14.585-7.418-7.293-6.49-5.47-6.491-5.469-11.127-2.734-12.055v-21.327l2.734-15.763 6.381-23.181 9.116-21.327 11.85-22.254 10.94-17.618 6.38-10.2 14.586-22.254 9.116-12.982 9.115-12.054 12.762-15.763 5.47-7.419.773-1.574 2.873-2.135 10.939-12.054 8.204-10.2 7.293-7.418 6.38-7.418 10.028-10.2 6.381-7.418 25.524-25.963 7.293-6.49 9.116-9.273 7.292-6.491 11.85-10.2 7.293-6.49 9.116-8.346 10.027-8.345 11.851-10.2 29.17-22.254 10.028-6.491 19.143-12.982 20.055-12.054 14.585-8.345 24.612-12.055 19.143-7.418 17.32-4.636zm16.408 44.508-24.612 8.345-18.232 7.418-16.408 7.418-20.966 11.127-20.967 12.055-20.054 12.981-11.85 9.273-10.028 7.418-14.585 12.054-12.762 10.2-9.116 8.345-10.027 8.346-10.94 10.2-10.027 8.345-6.38 6.49-7.293 6.491-49.225 50.072-6.381 7.418-8.205 9.273-10.027 12.981-8.204 9.273-8.204 10.2-10.94 13.909-10.027 14.836-8.204 12.054-12.762 20.4-12.762 25.036-7.293 14.836-5.469 13.909-6.381 19.472-2.735 11.127.912 4.636 11.85-1.854 21.878-7.418 15.497-6.491 14.585-7.418 20.966-11.127 16.409-10.2 15.497-10.2 14.585-10.2 10.939-8.345 12.762-10.2 15.497-12.981 10.027-9.273 10.027-8.345 11.85-12.055 7.293-6.49 9.116-8.346 6.381-6.49 7.293-6.491 30.993-31.527 5.47-6.49 7.292-6.492 13.674-14.836 6.38-7.418 8.205-9.272 7.293-9.273 8.204-10.2 6.38-8.345 13.675-18.545 9.115-13.909 9.116-14.836 8.204-14.836 8.204-17.618 4.558-10.2 5.47-12.981 6.38-24.109.912-10.2z" fill="#cf0612" style="display:inline;mix-blend-mode:multiply;stroke:#000;stroke-width:.919383;stroke-opacity:1" transform="translate(-20.009 -28.21)"/><path d="M635.428 516.037h2.734l9.116 12.982 11.85 15.763 12.763 18.545 9.115 13.91L691.034 593l8.204 14.836 10.027 21.327 4.558 11.127 4.558 15.763 2.735 13.909.911 19.472-.911 11.127-4.558 13.91-6.381 10.2-7.293 6.49-14.585 7.418-15.497 3.709h-14.585l-18.231-2.782-16.409-4.636-24.612-10.2-14.586-7.418-16.408-9.272-14.585-9.273-24.613-16.69-16.408-12.055-15.497-12.982-1.823-1.854v-2.782l8.204-6.49 10.028-8.346 15.496-15.763 2.735-.928 12.762 10.2 13.674 10.2 16.408 10.2 15.497 9.272 16.408 9.273 18.232 8.345 10.939 5.564 19.143 7.418 14.585 4.636 7.293.927-.912-9.272-5.47-21.327-8.204-20.4-10.939-22.254-13.673-23.181-12.762-18.545-10.94-14.836-9.115-12.982 1.823-4.636 8.204-8.346 8.205-10.2 9.115-10.2z" fill="#cf0511" style="display:inline;mix-blend-mode:multiply;stroke:#000;stroke-width:.919383;stroke-opacity:1" transform="translate(-20.009 -28.21)"/><path d="M446.732 691.289h1.823l2.734 21.327 4.558 17.618 7.293 19.472 7.293 14.836 9.115 14.836 2.735.928 5.47-8.346 8.204-15.763 9.115-22.254 4.558-17.618 3.647-24.109 3.646.927 15.497 12.055 18.231 11.127 8.204 4.636.912 4.636-9.116 30.6-6.38 15.763-8.205 17.618-9.116 13.909-10.027 13.909-11.85 10.2-13.674 9.272-6.381 3.71-6.381-.928-12.762-6.49-11.85-9.273-10.94-11.128-7.292-9.272-9.116-13.909-9.116-17.618-9.116-24.108-6.38-21.327v-5.564l7.292-4.636 10.939-6.491 17.32-12.054 7.292-5.564zM255.3 418.676l4.559.927 7.292 12.054 8.204 13.909 8.204 12.054 3.647 4.637v1.854l-20.966 6.49-25.525 10.2-17.32 9.273-10.027 7.418-.911 2.782 4.557 4.636 8.205 6.491 19.143 11.127 17.32 8.346 21.877 8.345-.911 3.709-9.116 12.981-11.85 20.4-5.47 8.345-14.585-5.563-22.79-11.127-19.142-11.127-17.32-12.982-5.47-4.636-7.292-6.491-3.647-2.782v-1.854l-3.646-1.855v-1.854l-3.646-1.855v-1.854l-3.647-1.855-6.38-7.418-3.647-3.709.912-5.563 18.231-25.964 11.85-12.054 15.497-12.054 12.762-9.273 10.94-6.49 20.966-10.2z" fill="#f31618" style="display:inline;mix-blend-mode:multiply;stroke:#000;stroke-width:.919383;stroke-opacity:1" transform="translate(-20.009 -28.21)"/><path d="m704.813 418.752 5.185.85 20.055 7.419 14.585 7.418 11.85 6.49 12.763 9.273 14.585 12.055 5.47 4.636 1.984 1.57 1.662 2.139 8.204 10.2 7.293 11.127 6.38 11.127v5.563l-6.38 7.418-19.143 19.473-16.409 12.054-10.939 8.345-17.32 10.2-15.496 8.346-20.967 9.272-3.646-1.854-13.674-21.327-10.939-15.764-2.734-3.709.911-2.781 27.348-11.127 14.585-7.419 12.762-7.418 10.027-6.49 10.128-6.622-3.747-2.651-11.85-7.418-12.762-7.418-19.143-8.345-27.348-9.273-.911-2.782 13.673-20.4 10.94-17.617z" fill="#cf0410" style="display:inline;mix-blend-mode:multiply;stroke:#000;stroke-width:.919383;stroke-opacity:1" transform="translate(-20.009 -28.21)"/><path d="m749.375 501.201 3.484-1.985 6.827 6.131 6.036 6.545 7.354 8.782 7.292 12.054 2.674 7.418-11.79 8.345-11.85 8.346-13.674 8.345-17.32 9.273-20.966 9.272-3.646-1.854-13.674-21.327-10.939-15.764-2.734-3.709.911-2.781 27.347-11.127 14.586-7.419 12.762-7.418 10.027-6.49z" fill="#9f0511" style="display:inline;mix-blend-mode:multiply;fill:maroon;stroke:#000;stroke-width:.919383;stroke-opacity:1" transform="translate(-20.009 -28.21)"/><path style="display:inline;mix-blend-mode:multiply;fill:maroon;fill-opacity:1;stroke:#000;stroke-width:2.007;stroke-opacity:1;paint-order:stroke fill markers" d="M228.136 572.416c-29.027-15.428-46.796-28.676-46.786-34.88.004-2.392 1.834-7.45 4.065-11.24 4.73-8.03 22.853-26.803 25.877-26.803 1.138 0 6.183 3.094 11.21 6.875 12.089 9.091 35.744 22.11 51.058 28.101 6.781 2.653 12.329 5.66 12.329 6.683 0 1.022-2.036 4.703-4.525 8.178-2.489 3.475-8.298 12.981-12.91 21.124-5.907 10.43-9.533 14.804-12.27 14.804-2.137 0-14.759-5.779-28.048-12.842z" transform="translate(-20.009 -28.21)"/><path style="display:inline;mix-blend-mode:multiply;fill:maroon;fill-opacity:1;stroke:#000;stroke-width:2.0484;stroke-opacity:1;paint-order:stroke fill markers" d="M427.791 297.595c-10.279-6.63-20.324-12.561-22.323-13.182-1.999-.62-3.634-2.973-3.634-5.227 0-13.951 24.437-70.77 36.916-84.661 12.293-13.684 19.477-3.909 34.192 11.94 9.029 9.724 13 16.552 10.613 18.247-9.507 6.753-33.96 65.36-33.96 81.395 0 2.045-.7 3.678-1.557 3.63-.856-.047-9.967-5.512-20.247-12.142z" transform="translate(-20.009 -28.21)"/><path style="display:inline;mix-blend-mode:multiply;fill:maroon;fill-opacity:1;stroke:#000;stroke-width:1.9505;stroke-opacity:1;paint-order:stroke fill markers" d="M510.165 803.724c-8.124-3.222-14.389-7.491-19.976-13.613l-8.14-8.92 9.657-18.543c11.22-21.548 16.707-46.228 18.654-56.099 1.274-6.458.278-15.684 1.254-15.684.977 0 9.814 3.255 14.999 7.232 5.185 3.978 14.897 10.27 21.582 13.982 6.686 3.713 12.163 8.052 12.173 9.643.031 5.233-10.805 38.024-14.873 53.394-4.272 16.143-21.8 33.597-23.232 33.347-.144-.025-5.588-2.158-12.098-4.74z" transform="translate(-20.009 -28.21)"/><path style="display:inline;mix-blend-mode:multiply;fill:#d40000;fill-opacity:1;stroke:#000;stroke-width:.132132;stroke-opacity:1;paint-order:stroke fill markers" d="M20.327 31.27c-1.307-1.143-2.25-2.182-2.197-2.42.021-.093.514-.73 1.095-1.415l1.057-1.245.727.808c.4.445 1.232 1.298 1.85 1.896l1.123 1.088-1.11 1.03c-.61.566-1.183 1.074-1.273 1.128-.104.061-.577-.263-1.272-.87z" transform="translate(104.491 106.79) scale(14.34)"/><path style="mix-blend-mode:multiply;fill:#a00;fill-opacity:1;stroke:#000;stroke-width:.132132;stroke-opacity:1;paint-order:stroke fill markers" d="M28.34 23.83a45.916 45.916 0 0 0-1.616-1.932c-.455-.507-.826-.989-.825-1.07.001-.134 1.563-1.629 2.11-2.022.184-.132.48.1 1.958 1.53l1.74 1.686-.823.92c-.453.506-1.015 1.14-1.25 1.41-.233.268-.442.489-.464.489-.02 0-.394-.455-.83-1.01z" transform="translate(104.491 106.79) scale(14.34)"/><path d="m482.702 166.9 7.293.928 10.939 5.564 9.115 7.418 8.205 8.345 12.762 17.618 7.292 12.054 10.028 19.472 7.292 18.546 6.381 20.4v3.708l-14.585 7.418-14.585 9.273-10.028 7.418-6.38 4.636-2.735-8.345-5.47-23.182-8.204-22.254-9.116-17.618-6.38-9.272-4.559-.927-1.823 4.636-8.204 12.982-7.293 14.836-5.469 14.836-4.558 15.763-2.735 17.618-4.557-1.855-12.763-9.272-20.054-12.054-8.204-3.71.911-7.418 6.381-21.326 8.204-19.473 9.116-17.618 10.028-12.981 8.204-12.982 11.85-10.2 11.85-7.418 9.116-4.636z" fill="#f31517" style="display:inline;mix-blend-mode:multiply;stroke:#000;stroke-width:.919383;stroke-opacity:1;shape-rendering:geometricPrecision" transform="translate(-21.34 -31.431)"/><path d="M635.428 516.037h2.734l9.116 12.982 11.85 15.763 12.763 18.545 9.115 13.91L691.034 593l8.204 14.836 10.027 21.327 4.558 11.127 4.558 15.763 2.735 13.909.911 19.472-.911 11.127-4.558 13.91-6.381 10.2-7.293 6.49-14.585 7.418-15.497 3.709h-14.585l-18.231-2.782-16.409-4.636-24.612-10.2-14.586-7.418-16.408-9.272-14.585-9.273-24.613-16.69-16.408-12.055-15.497-12.982-1.823-1.854v-2.782l8.204-6.49 10.028-8.346 15.496-15.763 2.735-.928 12.762 10.2 13.674 10.2 16.408 10.2 15.497 9.272 16.408 9.273 18.232 8.345 10.939 5.564 19.143 7.418 14.585 4.636 7.293.927-.912-9.272-5.47-21.327-8.204-20.4-10.939-22.254-13.673-23.181-12.762-18.545-10.94-14.836-9.115-12.982 1.823-4.636 8.204-8.346 8.205-10.2 9.115-10.2z" fill="#cf0511" style="display:inline;mix-blend-mode:multiply;stroke:#000;stroke-width:.919383;stroke-opacity:1" transform="rotate(176.426 473.366 481.685)"/></g></svg>